<svg xmlns="http://www.w3.org/2000/svg" xmlns:xlink="http://www.w3.org/1999/xlink" version="1.1" id="Layer_1" x="0px" y="0px" viewBox="-584.0 341.0 100.0 135.0" enable-background="new -589 351 100 100" xml:space="preserve" height="100px" width="100px">
<path d="M-533.014,422.195c-4.341-2.573-10.234-5.132-14.547-9.862v-2.205c2.003-2.335,3.513-5.03,4.541-8.169  c0.146-0.449,0.284-0.906,0.41-1.372c1.049-0.539,1.904-1.973,2.096-3.732c0.065-0.585,0.051-1.151-0.03-1.674  c-0.137-0.871-0.459-1.62-0.91-2.137c0.09-1.666,0.093-3.426,0.016-5.281c-0.06-1.443-0.17-2.943-0.335-4.509  c-0.041-0.387-0.092-0.759-0.155-1.12c-1.562-9.005-9.756-9.894-12.869-9.902c-0.125-0.001-2.279-0.001-2.403,0  c-3.113,0.007-11.307,0.897-12.869,9.902c-0.062,0.36-0.114,0.733-0.155,1.12c-0.164,1.566-0.273,3.065-0.335,4.509  c-0.079,1.855-0.075,3.616,0.016,5.281c-0.452,0.517-0.775,1.266-0.909,2.137c-0.082,0.523-0.096,1.088-0.032,1.674  c0.194,1.759,1.046,3.194,2.096,3.732c0.254,0.934,0.547,1.829,0.881,2.69c0.998,2.584,2.354,4.849,4.071,6.851v2.204v0.001  c-7.684,8.426-20.384,9.962-20.384,16.962v7.632c0,0.937,0.759,1.698,1.697,1.698h29.403  C-552.518,431.858-541.779,429.16-533.014,422.195z"/>
<path d="M-511.084,420.479l-0.013-3.292c4.655,0.608,14.143-2.781,14.143-2.781c-3.216-3.289-3.944-7.128-6.056-22.193  c-2.111-15.066-15.203-14.925-16.189-14.925c-0.985,0-14.078-0.141-16.189,14.925c-2.112,15.064-2.839,18.904-6.056,22.193  c0,0,9.489,3.389,14.143,2.781l-0.013,3.292c-8.281,9.081-22.012,10.737-22.011,18.283v8.228c0,1.01,0.819,1.83,1.829,1.83h28.254  h0.085h28.254c1.01,0,1.829-0.82,1.829-1.83v-8.228C-489.072,431.216-502.803,429.56-511.084,420.479z"/>
<text x="-589.0" y="468.5" font-size="5.0" font-weight="bold" font-family="Helvetica Neue, Helvetica, Arial-Unicode, Arial, Sans-serif" fill="#000000">Created by Pascal Conil-lacoste</text><text x="-589.0" y="473.5" font-size="5.0" font-weight="bold" font-family="Helvetica Neue, Helvetica, Arial-Unicode, Arial, Sans-serif" fill="#000000">from the Noun Project</text></svg>