<svg xmlns="http://www.w3.org/2000/svg" xmlns:xlink="http://www.w3.org/1999/xlink" version="1.1" id="Livello_1" x="0px" y="0px" width="100px" height="100px" viewBox="0 0 100 100" enable-background="new 0 0 100 100" xml:space="preserve">
<g>
	<g>
		<path fill="#000000" d="M23.788,30.932c-2.778,0-5.029-2.556-5.029-5.709V7.676c0-3.153,2.252-5.709,5.029-5.709    s5.029,2.556,5.029,5.709v17.547C28.817,28.376,26.566,30.932,23.788,30.932z"/>
		<path fill="#000000" d="M77.89,30.932c-2.778,0-5.029-2.556-5.029-5.709V7.676c0-3.153,2.252-5.709,5.029-5.709    c2.778,0,5.029,2.556,5.029,5.709v17.547C82.919,28.376,80.668,30.932,77.89,30.932z"/>
		<path fill="#000000" d="M90.302,12.408H11.686c-3.39,0-6.137,3.061-6.137,6.838v70.884c0,3.777,2.748,6.838,6.137,6.838h78.616    c3.39,0,6.137-3.061,6.137-6.838V19.246C96.439,15.469,93.691,12.408,90.302,12.408z M77.89,16.801c4.098,0,7.42,3.771,7.42,8.422    c0,4.651-3.322,8.422-7.42,8.422c-4.098,0-7.42-3.771-7.42-8.422C70.47,20.572,73.792,16.801,77.89,16.801z M23.788,16.801    c4.098,0,7.42,3.771,7.42,8.422c0,4.651-3.322,8.422-7.42,8.422c-4.098,0-7.42-3.771-7.42-8.422    C16.368,20.572,19.69,16.801,23.788,16.801z M11.167,88.22V39.763c0-1.417,1.012-2.566,2.261-2.566h75.494    c1.249,0,2.261,1.149,2.261,2.566v31.485l-0.841,0.987h-8.68c-3.39,0-6.137,2.541-6.137,6.818v10.582l-0.981,1.152H13.428    C12.18,90.787,11.167,89.637,11.167,88.22z M88.923,90.787h-8.383l10.644-12.499v9.933C91.184,89.637,90.171,90.787,88.923,90.787    z"/>
	</g>
	<path fill="#000000" d="M29.439,52.778h-8.622v-9.787h8.622V52.778z M46.683,42.992h-8.622v9.787h8.622V42.992z M63.926,42.992   h-8.622v9.787h8.622V42.992z M81.169,42.992h-8.622v9.787h8.622V42.992z M29.439,59.098h-8.622v9.787h8.622V59.098z M46.683,59.098   h-8.622v9.787h8.622V59.098z M63.926,59.098h-8.622v9.787h8.622V59.098z M81.169,59.098h-8.622v9.787h8.622V59.098z M29.439,75.204   h-8.622v9.787h8.622V75.204z M46.683,75.204h-8.622v9.787h8.622V75.204z M63.926,75.204h-8.622v9.787h8.622V75.204z M81.169,75.204   h-8.622v9.787h8.622V75.204z"/>
</g>
</svg>