<svg xmlns="http://www.w3.org/2000/svg" xmlns:xlink="http://www.w3.org/1999/xlink" version="1.1" id="Layer_1" x="0px" y="0px" viewBox="4.5 -9.0 90.0 121.5" enable-background="new 0 0 90 90" xml:space="preserve" height="100px" width="100px">
<path fill="#000000" d="M44.5,46.312L27,36.151V15.849L44.5,5.688L62,15.849v20.303L44.5,46.312z M31,33.849l13.5,7.839L58,33.849  V18.151l-13.5-7.839L31,18.151V33.849z"/>
<g>
	<path fill="#000000" d="M23,82.295L5,72.17V51.83l18-10.125L41,51.83v20.34L23,82.295z M9,69.83l14,7.875l14-7.875V54.17l-14-7.875   L9,54.17V69.83z"/>
</g>
<g>
	<path fill="#000000" d="M66,82.295L48,72.17V51.83l18-10.125L84,51.83v20.34L66,82.295z M52,69.83l14,7.875l14-7.875V54.17   l-14-7.875L52,54.17V69.83z"/>
</g>
<text x="0.0" y="105.75" font-size="4.5" font-weight="bold" font-family="Helvetica Neue, Helvetica, Arial-Unicode, Arial, Sans-serif" fill="#000000">Created by Callum Taylor</text><text x="0.0" y="110.25" font-size="4.5" font-weight="bold" font-family="Helvetica Neue, Helvetica, Arial-Unicode, Arial, Sans-serif" fill="#000000">from the Noun Project</text></svg>